Coordinates
version=1
nRows=31
nColumns=38
inDegrees=no

Units are S.I. units (second, meters, Newtons, ...)
If the header above contains a line with 'inDegrees', this indicates whether rotational values are in degrees (yes) or radians (no).

endheader
time	pelvis_tilt	pelvis_list	pelvis_rotation	pelvis_tx	pelvis_ty	pelvis_tz	hip_flexion_r	hip_adduction_r	hip_rotation_r	knee_angle_r	ankle_angle_r	subtalar_angle_r	mtp_angle_r	hip_flexion_l	hip_adduction_l	hip_rotation_l	knee_angle_l	ankle_angle_l	subtalar_angle_l	mtp_angle_l	lumbar_extension	lumbar_bending	lumbar_rotation	arm_flex_r	arm_add_r	arm_rot_r	elbow_flex_r	pro_sup_r	wrist_flex_r	wrist_dev_r	arm_flex_l	arm_add_l	arm_rot_l	elbow_flex_l	pro_sup_l	wrist_flex_l	wrist_dev_l
0	-0.293217	1.46018	-1.19565	0.730527	1.98292	0.943587	-0.23235	0.0997485	-0.18484	0.140556	-0.210581	0	0	0.346879	-0.0835695	-0.0793563	0.763598	-0.197071	0	0	-0.217512	0.0728759	-0.0674555	0.156529	-0.28317	0.266491	0.880307	1.5708	0	0	-0.235612	-0.275476	0.135438	0.802211	1.5708	0	0
0.01	-0.330425	1.46244	-1.15508	0.730838	1.97515	0.941922	-0.237149	0.10435	-0.184947	0.142417	-0.203179	0	0	0.350925	-0.0797107	-0.0847615	0.701964	-0.202232	0	0	-0.216871	0.0766197	-0.0688782	0.160168	-0.282252	0.263536	0.888858	1.5708	0	0	-0.236883	-0.270202	0.121157	0.803729	1.5708	0	0
0.02	-0.3517	1.46216	-1.12927	0.731215	1.96689	0.940293	-0.246066	0.108634	-0.190422	0.143873	-0.195775	0	0	0.349751	-0.0760607	-0.092425	0.639464	-0.208455	0	0	-0.217283	0.0763469	-0.0631942	0.156416	-0.282677	0.25343	0.898042	1.5708	0	0	-0.242078	-0.259582	0.0891374	0.815325	1.5708	0	0
0.03	-0.383527	1.46399	-1.09295	0.731749	1.95833	0.93854	-0.251882	0.112726	-0.196761	0.146843	-0.188339	0	0	0.349197	-0.0721045	-0.0991371	0.575813	-0.216643	0	0	-0.214415	0.0794737	-0.0653201	0.157905	-0.28203	0.251733	0.903782	1.5708	0	0	-0.243114	-0.256993	0.0833219	0.815547	1.5708	0	0
0.04	-0.411241	1.46577	-1.06094	0.732391	1.94966	0.936787	-0.257426	0.115947	-0.20373	0.151203	-0.180374	0	0	0.345087	-0.0667362	-0.103307	0.509345	-0.225282	0	0	-0.211592	0.0821078	-0.0674512	0.15929	-0.281615	0.251098	0.908407	1.5708	0	0	-0.244251	-0.254248	0.0776567	0.815888	1.5708	0	0
0.05	-0.430468	1.46698	-1.03783	0.73311	1.94089	0.935077	-0.262999	0.117995	-0.211834	0.158078	-0.171622	0	0	0.338862	-0.0601591	-0.106737	0.446732	-0.231275	0	0	-0.209634	0.0840944	-0.0695761	0.160652	-0.280944	0.250403	0.912239	1.5708	0	0	-0.245625	-0.25187	0.0727465	0.816309	1.5708	0	0
0.06	-0.440352	1.46807	-1.02443	0.734044	1.93194	0.933423	-0.268293	0.118411	-0.221772	0.167608	-0.162444	0	0	0.330442	-0.0517258	-0.108653	0.387653	-0.234141	0	0	-0.208001	0.085185	-0.0717727	0.161761	-0.280186	0.249478	0.914921	1.5708	0	0	-0.247286	-0.249522	0.0686184	0.816791	1.5708	0	0
0.07	-0.435774	1.46825	-1.0264	0.734846	1.92302	0.932002	-0.274072	0.117624	-0.23131	0.179565	-0.153254	0	0	0.31904	-0.0425993	-0.10882	0.332264	-0.235283	0	0	-0.208367	0.0849662	-0.0731714	0.163492	-0.279021	0.249456	0.915685	1.5708	0	0	-0.247931	-0.247319	0.0648183	0.816799	1.5708	0	0
0.08	-0.426606	1.46865	-1.03377	0.735633	1.91391	0.930696	-0.279104	0.115662	-0.241346	0.193842	-0.144612	0	0	0.307093	-0.0334143	-0.108206	0.282477	-0.235725	0	0	-0.20832	0.0840306	-0.0737815	0.164986	-0.278321	0.25115	0.915073	1.5708	0	0	-0.247953	-0.245192	0.0628781	0.81562	1.5708	0	0
0.09	-0.413937	1.46893	-1.04562	0.736248	1.90467	0.929536	-0.283853	0.113027	-0.250678	0.209526	-0.137343	0	0	0.296206	-0.0257238	-0.107324	0.242701	-0.23633	0	0	-0.208457	0.0824256	-0.0732921	0.166432	-0.27863	0.25582	0.913345	1.5708	0	0	-0.247282	-0.244278	0.0638633	0.813645	1.5708	0	0
0.1	-0.404056	1.46895	-1.05573	0.736738	1.89534	0.928424	-0.288622	0.110471	-0.257672	0.224975	-0.132945	0	0	0.28831	-0.0206472	-0.106516	0.218211	-0.235972	0	0	-0.210008	0.0780574	-0.0688103	0.166905	-0.282487	0.265785	0.912117	1.55141	0	0	-0.251659	-0.256818	0.0736673	0.825452	1.5708	0	0
0.11	-0.399484	1.46996	-1.0615	0.737101	1.88591	0.927366	-0.29111	0.107179	-0.263977	0.242733	-0.129319	0	0	0.2859	-0.018138	-0.107639	0.214212	-0.234854	0	0	-0.207942	0.0789392	-0.069711	0.166484	-0.274456	0.25527	0.907361	1.5708	0	0	-0.246024	-0.242476	0.0653594	0.808674	1.5708	0	0
0.12	-0.3973	1.47082	-1.06566	0.737499	1.87639	0.926336	-0.291535	0.102732	-0.273106	0.266091	-0.124062	0	0	0.287786	-0.017417	-0.110693	0.23047	-0.232684	0	0	-0.207318	0.0771705	-0.0669534	0.164836	-0.271303	0.251636	0.903994	1.5708	0	0	-0.245935	-0.24069	0.0646548	0.807143	1.5708	0	0
0.13	-0.400639	1.47207	-1.06516	0.737895	1.86667	0.925366	-0.290729	0.0977682	-0.282431	0.291348	-0.119333	0	0	0.292446	-0.0177624	-0.114099	0.261079	-0.229296	0	0	-0.205537	0.0758339	-0.0637033	0.162556	-0.26955	0.250616	0.900673	1.5708	0	0	-0.245717	-0.238703	0.065374	0.805031	1.5708	0	0
0.14	-0.404035	1.47377	-1.06503	0.738359	1.85673	0.924488	-0.289603	0.0920448	-0.290924	0.316847	-0.116155	0	0	0.296981	-0.0177962	-0.115189	0.297809	-0.223478	0	0	-0.202761	0.0736312	-0.0598766	0.159099	-0.268149	0.250096	0.896805	1.5708	0	0	-0.245979	-0.23854	0.0685562	0.802202	1.5708	0	0
0.15	-0.402358	1.47568	-1.07009	0.738925	1.84658	0.923816	-0.288711	0.0853183	-0.299057	0.34239	-0.115108	0	0	0.298579	-0.0164924	-0.113403	0.331238	-0.214245	0	0	-0.199546	0.0709495	-0.0558741	0.154214	-0.266822	0.248704	0.89287	1.5708	0	0	-0.246097	-0.238804	0.0736162	0.798978	1.5708	0	0
0.16	-0.390923	1.47803	-1.08549	0.739549	1.83613	0.923384	-0.288154	0.077039	-0.306043	0.367662	-0.116385	0	0	0.297212	-0.0135571	-0.111846	0.35588	-0.204427	0	0	-0.195794	0.0670998	-0.0510967	0.147722	-0.266176	0.24801	0.888782	1.5708	0	0	-0.24597	-0.238772	0.0792402	0.795238	1.5708	0	0
0.17	-0.370218	1.48122	-1.11056	0.740188	1.82544	0.923213	-0.286771	0.0671535	-0.312646	0.393995	-0.119966	0	0	0.294022	-0.00885793	-0.110785	0.368778	-0.201821	0	0	-0.191075	0.0620161	-0.0458529	0.139784	-0.26498	0.24591	0.884002	1.5708	0	0	-0.245467	-0.238089	0.0842427	0.790221	1.5708	0	0
0.18	-0.355043	1.48844	-1.13005	0.740863	1.81452	0.92305	-0.278524	0.0546281	-0.321189	0.427394	-0.12295	0	0	0.293936	-0.00256319	-0.109657	0.372588	-0.213203	0	0	-0.180753	0.0555323	-0.0354615	0.124734	-0.263185	0.233587	0.880755	1.5708	0	0	-0.240331	-0.240162	0.100341	0.780356	1.5708	0	0
0.19	-0.331104	1.49447	-1.15807	0.741518	1.8035	0.923218	-0.272634	0.0430528	-0.324953	0.456543	-0.130919	0	0	0.290886	0.00268024	-0.109327	0.37231	-0.229336	0	0	-0.172019	0.0486547	-0.0312969	0.115648	-0.260756	0.232218	0.872517	1.5708	0	0	-0.240691	-0.239461	0.104111	0.774033	1.5708	0	0
0.2	-0.31164	1.50118	-1.18173	0.742264	1.79232	0.923423	-0.264945	0.0313643	-0.326137	0.487103	-0.140381	0	0	0.287048	0.00704745	-0.110252	0.371213	-0.243163	0	0	-0.161816	0.0423056	-0.0285243	0.106646	-0.258949	0.233511	0.863995	1.5708	0	0	-0.242699	-0.237796	0.10516	0.768312	1.5708	0	0
0.21	-0.299984	1.50726	-1.19721	0.743197	1.78103	0.923681	-0.256912	0.0203009	-0.324657	0.518394	-0.151272	0	0	0.282096	0.0102593	-0.112235	0.371154	-0.251754	0	0	-0.151525	0.0377643	-0.0282185	0.0987107	-0.259902	0.242322	0.856133	1.5708	0	0	-0.246419	-0.234845	0.103643	0.764133	1.5708	0	0
0.22	-0.32882	1.51749	-1.17136	0.744342	1.76955	0.923593	-0.240795	0.00857112	-0.323027	0.55697	-0.165	0	0	0.283494	0.0127017	-0.113478	0.375345	-0.256841	0	0	-0.135947	0.0345213	-0.0153047	0.0721181	-0.256934	0.213497	0.861369	1.5708	0	0	-0.240358	-0.235282	0.120757	0.755023	1.5708	0	0
0.23	-0.351798	1.52516	-1.15014	0.745613	1.75816	0.923818	-0.226763	-0.00286468	-0.319553	0.595506	-0.181313	0	0	0.282696	0.0144252	-0.114439	0.381675	-0.260229	0	0	-0.122842	0.0311884	-0.0135288	0.0577775	-0.256467	0.210611	0.857493	1.5708	0	0	-0.242119	-0.233744	0.124245	0.750489	1.5708	0	0
0.24	-0.359595	1.53253	-1.14315	0.746948	1.74686	0.92435	-0.21168	-0.0152986	-0.313732	0.635965	-0.201269	0	0	0.28109	0.0170366	-0.114016	0.387735	-0.264421	0	0	-0.110609	0.0274398	-0.0132769	0.0442288	-0.255835	0.208977	0.852442	1.5708	0	0	-0.242828	-0.231837	0.127912	0.745178	1.5708	0	0
0.25	-0.334712	1.53982	-1.16787	0.748337	1.73573	0.925192	-0.19492	-0.0282831	-0.304696	0.67783	-0.224367	0	0	0.277957	0.0214811	-0.111612	0.39114	-0.26907	0	0	-0.0992185	0.0229933	-0.0142632	0.0315283	-0.254898	0.208007	0.846127	1.5708	0	0	-0.242007	-0.229689	0.132374	0.739024	1.5708	0	0
0.26	-0.275853	1.54725	-1.22567	0.749793	1.72481	0.926142	-0.175572	-0.0413877	-0.292098	0.721536	-0.248355	0	0	0.274322	0.0270457	-0.107766	0.393653	-0.270655	0	0	-0.0879459	0.0177726	-0.0163243	0.0199256	-0.253636	0.207804	0.838528	1.5708	0	0	-0.240375	-0.229082	0.139235	0.732678	1.5708	0	0
0.27	-0.327486	1.55942	-1.17475	0.751092	1.71438	0.926694	-0.150853	-0.0508034	-0.23847	0.764879	-0.263502	0	0	0.277141	0.0317939	-0.103918	0.397683	-0.268219	0	0	-0.0711993	0.0132321	-0.0173246	0.00982715	-0.252748	0.209834	0.829296	1.5708	0	0	-0.237867	-0.228549	0.14772	0.725081	1.5708	0	0
0.28	-2.29195	1.56701	0.787702	0.752162	1.70449	0.927164	-0.126153	-0.0550965	-0.147881	0.795468	-0.283349	0	0	0.281984	0.0341127	-0.100997	0.402118	-0.264042	0	0	-0.0543424	0.0101049	-0.0179031	0.00220414	-0.252644	0.2155	0.819465	1.5708	0	0	-0.234777	-0.2292	0.157421	0.718651	1.5708	0	0
0.29	-3.1339	1.56443	1.63254	0.753752	1.69434	0.928082	-0.102423	-0.0659346	-0.136408	0.839185	-0.322843	0	0	0.275074	0.0390311	-0.0999759	0.404271	-0.258802	0	0	-0.0477248	0.00635941	-0.0246533	-0.00524459	-0.254095	0.223317	0.814514	1.5708	0	0	-0.233072	-0.231169	0.167146	0.718205	1.5708	0	0
0.3	2.8745	1.5609	1.91127	0.755515	1.6844	0.928949	-0.0776032	-0.0769793	-0.129529	0.883594	-0.365385	0	0	0.267259	0.0440337	-0.0990235	0.40622	-0.252792	0	0	-0.042153	0.00334057	-0.0330689	-0.0118968	-0.256746	0.232749	0.810873	1.5708	0	0	-0.231021	-0.23263	0.175804	0.719	1.5708	0	0
